<svg width="1260" height="901" viewBox="0 0 1260 901" fill="none" xmlns="http://www.w3.org/2000/svg">
<path fill-rule="evenodd" clip-rule="evenodd" d="M936.278 37.1054C1014.3 104.111 1098.96 160.675 1147.45 251.634C1209.27 367.59 1288.18 496.626 1249.07 623.798C1209.37 752.875 1079.35 841.216 952.26 886.291C837.845 926.871 720.704 867.912 601.098 853.617C488.459 840.155 372.177 858.74 272.821 805.087C156.607 742.332 20.0955 661.643 1.71717 529.95C-16.6719 398.18 118.214 298.844 185.991 182.895C242.904 85.5326 271.084 -33.3693 366.257 -93.684C462.084 -154.414 583.921 -163.574 693.149 -138.512C793.402 -115.509 858.541 -29.6536 936.278 37.1054Z" fill="url(#paint0_linear)"/>
<defs>
<linearGradient id="paint0_linear" x1="1105.81" y1="1966.06" x2="562.133" y2="279.708" gradientUnits="userSpaceOnUse">
<stop offset="0.575" stop-color="#8FE65B"/>
<stop offset="1" stop-color="white" stop-opacity="0"/>
</linearGradient>
</defs>
</svg>
