<svg width="506" height="464" viewBox="0 0 506 464" fill="none" xmlns="http://www.w3.org/2000/svg">
<path fill-rule="evenodd" clip-rule="evenodd" d="M305.844 0.1517C245.469 1.57819 188.327 17.2154 137.7 43.2332C84.7615 70.4388 34.4289 103.947 12.7244 150.789C-9.41852 198.578 0.396606 250.892 18.8949 299.638C37.767 349.369 65.2324 399.224 118.533 429.612C171.751 459.952 240.341 466.521 305.844 463.233C368.195 460.103 427.818 442.446 476.618 411.636C523.811 381.84 553.212 339.644 573.002 294.559C593.147 248.668 606.632 199.846 590.124 153.058C573.184 105.046 533.622 63.167 481.461 35.1111C430.312 7.59983 367.701 -1.30979 305.844 0.1517Z" fill="url(#paint0_linear)" fill-opacity="0.4"/>
<defs>
<linearGradient id="paint0_linear" x1="464.435" y1="203.218" x2="44.4008" y2="249.168" gradientUnits="userSpaceOnUse">
<stop offset="0.517708" stop-color="#73C144"/>
<stop offset="1" stop-color="#A6FF4B"/>
</linearGradient>
</defs>
</svg>
