<svg width="515" height="464" viewBox="0 0 515 464" fill="none" xmlns="http://www.w3.org/2000/svg">
<path fill-rule="evenodd" clip-rule="evenodd" d="M305.844 0.1517C245.469 1.57819 188.326 17.2154 137.699 43.2332C84.7612 70.4388 34.4286 103.947 12.7242 150.789C-9.41876 198.578 0.396362 250.892 18.8947 299.638C37.7668 349.369 65.2321 399.224 118.533 429.612C171.75 459.952 240.341 466.521 305.844 463.233C368.195 460.103 427.818 442.446 476.618 411.636C523.81 381.84 553.212 339.644 573.002 294.559C593.147 248.668 606.632 199.846 590.124 153.058C573.184 105.046 533.621 63.167 481.46 35.1111C430.312 7.59983 367.701 -1.30979 305.844 0.1517Z" fill="url(#paint0_linear)" fill-opacity="0.8"/>
<defs>
<linearGradient id="paint0_linear" x1="464.435" y1="203.218" x2="44.4006" y2="249.168" gradientUnits="userSpaceOnUse">
<stop offset="0.517708" stop-color="#73C144"/>
<stop offset="1" stop-color="#A6FF4B"/>
</linearGradient>
</defs>
</svg>
