<svg width="433" height="438" viewBox="0 0 433 438" fill="none" xmlns="http://www.w3.org/2000/svg">
<path fill-rule="evenodd" clip-rule="evenodd" d="M274.989 2.1362C328.979 -3.50369 385.674 1.15295 431.64 26.6497C479.325 53.1001 517.608 94.9366 529.549 143.337C540.971 189.636 509.648 233.098 493.741 278.365C477.521 324.521 478.487 379.819 435.756 410.243C392.483 441.053 330.668 432.403 274.989 434.113C216.98 435.894 155.172 447.227 105.841 420.371C55.1093 392.754 27.928 341.493 12.0493 290.971C-3.29982 242.135 -6.86353 188.276 18.6062 142.817C42.5227 100.131 97.3186 81.9858 143.266 56.774C185.479 33.6108 225.559 7.29985 274.989 2.1362Z" fill="url(#paint0_linear)" fill-opacity="0.8"/>
<defs>
<linearGradient id="paint0_linear" x1="462.609" y1="321.695" x2="209.764" y2="215.673" gradientUnits="userSpaceOnUse">
<stop offset="0.241667" stop-color="#73C144"/>
<stop offset="1" stop-color="#7EC337"/>
</linearGradient>
</defs>
</svg>
