<svg width="515" height="464" viewBox="0 0 515 464" fill="none" xmlns="http://www.w3.org/2000/svg">
<path fill-rule="evenodd" clip-rule="evenodd" d="M208.913 0.1517C269.336 1.57819 326.524 17.2154 377.191 43.2332C430.171 70.4388 480.544 103.947 502.266 150.789C524.426 198.578 514.603 250.892 496.09 299.638C477.203 349.369 449.716 399.224 396.373 429.612C343.113 459.952 274.468 466.521 208.913 463.233C146.512 460.103 86.8419 442.446 38.0034 411.636C-9.22671 381.84 -38.6516 339.644 -58.4575 294.559C-78.6181 248.668 -92.1141 199.846 -75.5926 153.058C-58.6391 105.046 -19.0454 63.167 33.157 35.1111C84.3459 7.59983 147.007 -1.30979 208.913 0.1517Z" fill="url(#paint0_linear)" fill-opacity="0.7"/>
<defs>
<linearGradient id="paint0_linear" x1="50.196" y1="203.218" x2="470.556" y2="249.24" gradientUnits="userSpaceOnUse">
<stop stop-color="#73C144"/>
<stop offset="0.752083" stop-color="#A6FF4B"/>
</linearGradient>
</defs>
</svg>
