<svg width="426" height="400" viewBox="0 0 426 400" fill="none" xmlns="http://www.w3.org/2000/svg">
<path fill-rule="evenodd" clip-rule="evenodd" d="M220.47 2.03486C264.282 -4.61777 313.853 4.67224 345.797 35.3733C376.684 65.0588 366.967 115.187 380.491 155.829C394.16 196.906 431.504 231.488 425.313 274.334C418.796 319.445 387.255 360.178 347.692 382.839C309.883 404.494 262.395 403.538 220.47 391.66C184.869 381.574 168.478 342.007 136.697 323.061C99.6104 300.952 44.9891 308.418 20.8248 272.646C-4.48306 235.18 -6.44268 181.169 13.4127 140.552C32.6267 101.247 83.6875 93.9822 120.058 69.6512C154.438 46.6514 179.57 8.24545 220.47 2.03486Z" fill="url(#paint0_linear)" fill-opacity="0.4"/>
<defs>
<linearGradient id="paint0_linear" x1="213" y1="0" x2="213" y2="400" gradientUnits="userSpaceOnUse">
<stop stop-color="#A6FF4B"/>
<stop offset="1" stop-color="#73C144"/>
</linearGradient>
</defs>
</svg>
