<svg width="440" height="369" viewBox="0 0 440 369" fill="none" xmlns="http://www.w3.org/2000/svg">
<path fill-rule="evenodd" clip-rule="evenodd" d="M227.435 1.79968C272.088 -2.95174 318.979 0.971324 356.996 22.4515C396.435 44.7351 428.097 79.9808 437.973 120.757C447.42 159.762 421.513 196.377 408.357 234.513C394.942 273.398 395.741 319.985 360.4 345.615C324.61 371.572 273.485 364.285 227.435 365.725C179.458 367.225 128.338 376.773 87.5373 354.148C45.5791 330.882 23.0983 287.696 9.96558 245.133C-2.72918 203.99 -5.6766 158.616 15.3886 120.319C35.1692 84.3567 80.4891 69.0703 118.49 47.8302C153.404 28.316 186.552 6.14987 227.435 1.79968Z" fill="url(#paint0_linear)" fill-opacity="0.8"/>
<defs>
<linearGradient id="paint0_linear" x1="382.609" y1="271.017" x2="172.35" y2="184.464" gradientUnits="userSpaceOnUse">
<stop offset="0.241667" stop-color="#73C144"/>
<stop offset="1" stop-color="#7EC337"/>
</linearGradient>
</defs>
</svg>
