<?xml version="1.0" encoding="UTF-8" standalone="no"?>
<!-- Created with Inkscape (http://www.inkscape.org/) -->

<svg
   xmlns:dc="http://purl.org/dc/elements/1.1/"
   xmlns:cc="http://creativecommons.org/ns#"
   xmlns:rdf="http://www.w3.org/1999/02/22-rdf-syntax-ns#"
   xmlns:svg="http://www.w3.org/2000/svg"
   xmlns="http://www.w3.org/2000/svg"
   xmlns:sodipodi="http://sodipodi.sourceforge.net/DTD/sodipodi-0.dtd"
   xmlns:inkscape="http://www.inkscape.org/namespaces/inkscape"
   version="1.1"
   id="svg2"
   xml:space="preserve"
   width="169"
   height="62"
   viewBox="0 0 169.00001 62.000002"
   sodipodi:docname="logo.svg"
   inkscape:version="0.92.5 (2060ec1f9f, 2020-04-08)"><metadata
     id="metadata8"><rdf:RDF><cc:Work
         rdf:about=""><dc:format>image/svg+xml</dc:format><dc:type
           rdf:resource="http://purl.org/dc/dcmitype/StillImage" /><dc:title /></cc:Work></rdf:RDF></metadata><defs
     id="defs6"><clipPath
       clipPathUnits="userSpaceOnUse"
       id="clipPath18"><path
         d="m 391.247,580.159 c 0,-12.288 2.04,-24.345 6.063,-35.841 v 0 l 4.733,-13.523 H 194.446 l -2.573,-19.902 c -0.126,-0.952 -0.901,-6.124 -2.259,-15.185 v 0 l -0.107,-0.713 c -4.006,-26.72 -11.464,-76.456 -15.176,-104.3 v 0 l -4.166,-31.239 30.955,5.922 c 55.475,10.612 103.916,17.744 152.445,22.444 v 0 l 9.286,0.898 3.891,-21.104 -1.085,-2.724 c -2.825,-7.092 -21.405,-53.803 -21.405,-53.803 v 0 l 34.022,8.169 c 19.251,4.625 38.859,8.322 58.277,10.992 v 0 l 63.453,8.722 63.446,-8.722 c 19.422,-2.671 39.031,-6.369 58.279,-10.99 v 0 l 34.016,-8.171 -5.265,13.246 c 0,0 -11.35,28.541 -16.136,40.557 v 0 l -1.084,2.724 3.891,21.104 9.287,-0.898 c 48.53,-4.7 96.969,-11.832 152.442,-22.444 v 0 l 30.955,-5.922 -4.166,31.241 c -2.919,21.885 -8.576,60.712 -16.817,115.401 v 0 c 0,0 -0.672,4.462 -0.728,4.842 v 0 l -2.568,19.855 H 597.957 l 4.733,13.523 c 4.023,11.494 6.063,23.553 6.063,35.841 v 0 c 0,59.966 -48.786,108.752 -108.753,108.752 v 0 c -59.966,0 -108.753,-48.786 -108.753,-108.752"
         id="path16"
         inkscape:connector-curvature="0" /></clipPath><linearGradient
       x1="0"
       y1="0"
       x2="1"
       y2="0"
       gradientUnits="userSpaceOnUse"
       gradientTransform="matrix(0,377.82193,377.82193,0,500,311.08905)"
       spreadMethod="pad"
       id="linearGradient30"><stop
         style="stop-opacity:1;stop-color:#fb9d12"
         offset="0"
         id="stop24" /><stop
         style="stop-opacity:1;stop-color:#fb9d12"
         offset="0.204386"
         id="stop26" /><stop
         style="stop-opacity:1;stop-color:#feb724"
         offset="1"
         id="stop28" /></linearGradient><clipPath
       clipPathUnits="userSpaceOnUse"
       id="clipPath40"><path
         d="M 0,1000 H 1000 V 0 H 0 Z"
         id="path38"
         inkscape:connector-curvature="0" /></clipPath><clipPath
       clipPathUnits="userSpaceOnUse"
       id="clipPath100"><path
         d="M 442.983,623.44 H 543.282 V 523.141 H 442.983 Z"
         id="path98"
         inkscape:connector-curvature="0" /></clipPath><clipPath
       clipPathUnits="userSpaceOnUse"
       id="clipPath116"><path
         d="m 440.159,566.492 h 46.174 v -46.174 h -46.174 z"
         id="path114"
         inkscape:connector-curvature="0" /></clipPath><clipPath
       clipPathUnits="userSpaceOnUse"
       id="clipPath132"><path
         d="m 515.524,639.562 h 43.88 v -43.88 h -43.88 z"
         id="path130"
         inkscape:connector-curvature="0" /></clipPath><clipPath
       clipPathUnits="userSpaceOnUse"
       id="clipPath148"><path
         d="m 460.471,630.268 h 89.638 v -89.639 h -89.638 z"
         id="path146"
         inkscape:connector-curvature="0" /></clipPath><clipPath
       clipPathUnits="userSpaceOnUse"
       id="clipPath164"><path
         d="m 454.381,623.432 h 88.961 v -88.961 h -88.961 z"
         id="path162"
         inkscape:connector-curvature="0" /></clipPath><clipPath
       clipPathUnits="userSpaceOnUse"
       id="clipPath188"><path
         d="m 498.793,643.156 h 64.205 V 517.161 h -64.205 z"
         id="path186"
         inkscape:connector-curvature="0" /></clipPath><clipPath
       clipPathUnits="userSpaceOnUse"
       id="clipPath208"><path
         d="m 484.262,618.057 h 31.477 v -75.799 h -31.477 z"
         id="path206"
         inkscape:connector-curvature="0" /></clipPath><clipPath
       clipPathUnits="userSpaceOnUse"
       id="clipPath228"><path
         d="m 484.262,595.323 h 31.477 v -53.065 h -31.477 z"
         id="path226"
         inkscape:connector-curvature="0" /></clipPath><clipPath
       clipPathUnits="userSpaceOnUse"
       id="clipPath244"><path
         d="m 485.159,607.559 h 12.383 v -17.513 h -12.383 z"
         id="path242"
         inkscape:connector-curvature="0" /></clipPath><clipPath
       clipPathUnits="userSpaceOnUse"
       id="clipPath260"><path
         d="m 503.632,583.956 h 8.743 v -8.742 h -8.743 z"
         id="path258"
         inkscape:connector-curvature="0" /></clipPath><clipPath
       clipPathUnits="userSpaceOnUse"
       id="clipPath328"><path
         d="m 303.587,452.355 c -1.061,-9.076 -2.129,-18.136 -3.186,-27.224 v 0 l -0.184,-1.587 -1.587,-0.171 c -5.104,-0.552 -10.204,-1.126 -15.304,-1.72 v 0 l -2.523,-0.296 0.307,2.523 c 1.091,8.991 2.196,17.951 3.294,26.929 v 0 c -3.678,-0.31 -7.36,-0.629 -11.048,-0.957 v 0 c -1.747,-13.768 -3.483,-27.502 -5.193,-41.117 v 0 c 13.915,2.047 28.084,3.925 42.184,5.593 v 0 c 1.418,12.895 2.853,25.867 4.293,38.848 v 0 c -3.683,-0.265 -7.367,-0.54 -11.053,-0.821"
         id="path326"
         inkscape:connector-curvature="0" /></clipPath><linearGradient
       x1="0"
       y1="0"
       x2="1"
       y2="0"
       gradientUnits="userSpaceOnUse"
       gradientTransform="matrix(0,44.44043,44.44043,0,291.40155,408.73553)"
       spreadMethod="pad"
       id="linearGradient340"><stop
         style="stop-opacity:1;stop-color:#666666"
         offset="0"
         id="stop334" /><stop
         style="stop-opacity:1;stop-color:#ffffff"
         offset="0.795614"
         id="stop336" /><stop
         style="stop-opacity:1;stop-color:#ffffff"
         offset="1"
         id="stop338" /></linearGradient><clipPath
       clipPathUnits="userSpaceOnUse"
       id="clipPath350"><path
         d="m 362.482,456.146 c -0.769,-8.507 -1.542,-17.005 -2.308,-25.516 v 0 l -0.152,-1.69 -1.691,-0.126 c -5.12,-0.382 -10.238,-0.785 -15.354,-1.21 v 0 l -2.389,-0.198 0.233,2.386 c 0.823,8.431 1.653,16.845 2.48,25.268 v 0 c -3.702,-0.223 -7.402,-0.453 -11.1,-0.691 v 0 c -1.343,-12.775 -2.673,-25.477 -3.983,-38.031 v 0 c 14.023,1.493 28.262,2.815 42.39,3.935 v 0 c 0.991,12.154 1.997,24.287 2.995,36.431 v 0 c -3.713,-0.179 -7.42,-0.364 -11.121,-0.558"
         id="path348"
         inkscape:connector-curvature="0" /></clipPath><linearGradient
       x1="0"
       y1="0"
       x2="1"
       y2="0"
       gradientUnits="userSpaceOnUse"
       gradientTransform="matrix(0,40.366211,40.366211,0,350.91083,416.33807)"
       spreadMethod="pad"
       id="linearGradient362"><stop
         style="stop-opacity:1;stop-color:#666666"
         offset="0"
         id="stop356" /><stop
         style="stop-opacity:1;stop-color:#ffffff"
         offset="0.795614"
         id="stop358" /><stop
         style="stop-opacity:1;stop-color:#ffffff"
         offset="1"
         id="stop360" /></linearGradient><clipPath
       clipPathUnits="userSpaceOnUse"
       id="clipPath372"><path
         d="m 406.302,458.073 c -0.771,-11.834 -1.547,-23.664 -2.314,-35.501 v 0 c 3.736,0.218 7.589,0.429 11.496,0.63 v 0 c 0.649,11.753 1.306,23.5 1.959,35.25 v 0 c -3.723,-0.12 -7.437,-0.246 -11.141,-0.379"
         id="path370"
         inkscape:connector-curvature="0" /></clipPath><linearGradient
       x1="0"
       y1="0"
       x2="1"
       y2="0"
       gradientUnits="userSpaceOnUse"
       gradientTransform="matrix(0,35.880615,35.880615,0,410.716,422.57147)"
       spreadMethod="pad"
       id="linearGradient384"><stop
         style="stop-opacity:1;stop-color:#666666"
         offset="0"
         id="stop378" /><stop
         style="stop-opacity:1;stop-color:#ffffff"
         offset="0.795614"
         id="stop380" /><stop
         style="stop-opacity:1;stop-color:#ffffff"
         offset="1"
         id="stop382" /></linearGradient><clipPath
       clipPathUnits="userSpaceOnUse"
       id="clipPath394"><path
         d="m 465.836,459.622 c 4.394,-2.112 8.801,-4.224 13.238,-6.346 v 0 l 1.155,-0.553 -0.289,-18.776 -1.945,-0.023 c -5.137,-0.06 -10.27,-0.136 -15.405,-0.237 v 0 l -2.093,-0.039 0.674,25.899 c -3.735,-0.067 -7.45,-0.143 -11.156,-0.223 v 0 c -0.424,-11.585 -0.85,-23.168 -1.271,-34.754 v 0 c 14.163,0.437 28.427,0.695 42.461,0.77 v 0 l 0.153,32.329 -4.661,2.244 c -7.018,-0.076 -13.959,-0.176 -20.861,-0.291"
         id="path392"
         inkscape:connector-curvature="0" /></clipPath><linearGradient
       x1="0"
       y1="0"
       x2="1"
       y2="0"
       gradientUnits="userSpaceOnUse"
       gradientTransform="matrix(0,35.34375,35.34375,0,470.05048,424.56952)"
       spreadMethod="pad"
       id="linearGradient406"><stop
         style="stop-opacity:1;stop-color:#666666"
         offset="0"
         id="stop400" /><stop
         style="stop-opacity:1;stop-color:#ffffff"
         offset="0.795614"
         id="stop402" /><stop
         style="stop-opacity:1;stop-color:#ffffff"
         offset="1"
         id="stop404" /></linearGradient><clipPath
       clipPathUnits="userSpaceOnUse"
       id="clipPath416"><path
         d="m 712.266,446.294 -0.592,4.847 c -2.881,0.239 -5.758,0.467 -8.634,0.694 v 0 c 3.112,-1.849 6.203,-3.702 9.226,-5.541"
         id="path414"
         inkscape:connector-curvature="0" /></clipPath><linearGradient
       x1="0"
       y1="0"
       x2="1"
       y2="0"
       gradientUnits="userSpaceOnUse"
       gradientTransform="matrix(0,5.5415039,5.5415039,0,707.65338,446.29413)"
       spreadMethod="pad"
       id="linearGradient428"><stop
         style="stop-opacity:1;stop-color:#666666"
         offset="0"
         id="stop422" /><stop
         style="stop-opacity:1;stop-color:#ffffff"
         offset="0.795614"
         id="stop424" /><stop
         style="stop-opacity:1;stop-color:#ffffff"
         offset="1"
         id="stop426" /></linearGradient><clipPath
       clipPathUnits="userSpaceOnUse"
       id="clipPath438"><path
         d="m 231.514,445.776 c 2.795,-1.589 5.607,-3.169 8.425,-4.716 v 0 c 0.254,1.894 0.509,3.785 0.762,5.677 v 0 c -3.053,-0.312 -6.12,-0.636 -9.187,-0.961"
         id="path436"
         inkscape:connector-curvature="0" /></clipPath><linearGradient
       x1="0"
       y1="0"
       x2="1"
       y2="0"
       gradientUnits="userSpaceOnUse"
       gradientTransform="matrix(0,5.6762695,5.6762695,0,236.10744,441.06073)"
       spreadMethod="pad"
       id="linearGradient450"><stop
         style="stop-opacity:1;stop-color:#666666"
         offset="0"
         id="stop444" /><stop
         style="stop-opacity:1;stop-color:#ffffff"
         offset="0.795614"
         id="stop446" /><stop
         style="stop-opacity:1;stop-color:#ffffff"
         offset="1"
         id="stop448" /></linearGradient><clipPath
       clipPathUnits="userSpaceOnUse"
       id="clipPath460"><path
         d="m 214.658,443.939 c -2.107,-15.133 -4.202,-30.252 -6.268,-45.272 v 0 c 3.749,0.715 7.496,1.412 11.185,2.084 v 0 c 2.006,14.82 4.021,29.62 6.044,44.394 v 0 c -3.643,-0.394 -7.294,-0.794 -10.961,-1.206"
         id="path458"
         inkscape:connector-curvature="0" /></clipPath><linearGradient
       x1="0"
       y1="0"
       x2="1"
       y2="0"
       gradientUnits="userSpaceOnUse"
       gradientTransform="matrix(0,46.478516,46.478516,0,217.00459,398.66718)"
       spreadMethod="pad"
       id="linearGradient472"><stop
         style="stop-opacity:1;stop-color:#666666"
         offset="0"
         id="stop466" /><stop
         style="stop-opacity:1;stop-color:#ffffff"
         offset="0.795614"
         id="stop468" /><stop
         style="stop-opacity:1;stop-color:#ffffff"
         offset="1"
         id="stop470" /></linearGradient><clipPath
       clipPathUnits="userSpaceOnUse"
       id="clipPath482"><path
         d="m 749.691,405.998 c 3.82,-0.61 7.59,-1.227 11.249,-1.842 v 0 c -1.876,14.159 -3.761,28.296 -5.654,42.414 v 0 l -0.077,0.576 c -3.676,0.37 -7.345,0.732 -11.003,1.084 v 0 c 1.84,-14.102 3.673,-28.205 5.485,-42.232"
         id="path480"
         inkscape:connector-curvature="0" /></clipPath><linearGradient
       x1="0"
       y1="0"
       x2="1"
       y2="0"
       gradientUnits="userSpaceOnUse"
       gradientTransform="matrix(0,44.073242,44.073242,0,752.57324,404.15643)"
       spreadMethod="pad"
       id="linearGradient494"><stop
         style="stop-opacity:1;stop-color:#666666"
         offset="0"
         id="stop488" /><stop
         style="stop-opacity:1;stop-color:#ffffff"
         offset="0.795614"
         id="stop490" /><stop
         style="stop-opacity:1;stop-color:#ffffff"
         offset="1"
         id="stop492" /></linearGradient><clipPath
       clipPathUnits="userSpaceOnUse"
       id="clipPath504"><path
         d="m 689.792,414.311 c 14.061,-1.665 28.186,-3.539 42.046,-5.577 v 0 c -0.762,6.071 -1.528,12.141 -2.292,18.207 v 0 c -3.887,2.554 -7.847,5.115 -11.821,7.645 v 0 l 1.611,-13.246 -2.525,0.297 c -5.044,0.591 -10.193,1.169 -15.302,1.721 v 0 l -1.587,0.171 -0.185,1.587 c -0.778,6.698 -2.407,20.652 -3.175,27.228 v 0 c -3.691,0.282 -7.379,0.558 -11.065,0.822 v 0 c 1.439,-12.965 2.873,-25.939 4.295,-38.855"
         id="path502"
         inkscape:connector-curvature="0" /></clipPath><linearGradient
       x1="0"
       y1="0"
       x2="1"
       y2="0"
       gradientUnits="userSpaceOnUse"
       gradientTransform="matrix(0,44.431885,44.431885,0,708.66736,408.73456)"
       spreadMethod="pad"
       id="linearGradient516"><stop
         style="stop-opacity:1;stop-color:#666666"
         offset="0"
         id="stop510" /><stop
         style="stop-opacity:1;stop-color:#ffffff"
         offset="0.795614"
         id="stop512" /><stop
         style="stop-opacity:1;stop-color:#ffffff"
         offset="1"
         id="stop514" /></linearGradient><clipPath
       clipPathUnits="userSpaceOnUse"
       id="clipPath526"><path
         d="m 629.661,420.371 c 9.934,-0.789 19.796,-1.664 29.344,-2.603 v 0 l 1.61,-0.158 0.015,-0.125 c 3.792,-0.377 7.575,-0.766 11.291,-1.163 v 0 c -1.01,9.686 -2.024,19.367 -3.039,29.045 v 0 c -3.831,2.225 -7.718,4.457 -11.606,6.661 v 0 c 0.724,-7.376 2.401,-24.52 2.401,-24.52 v 0 l -2.39,0.198 c -5.116,0.426 -10.233,0.827 -15.353,1.21 v 0 l -1.691,0.126 -0.152,1.688 c -0.763,8.475 -1.537,16.933 -2.303,25.403 v 0 c -3.7,0.194 -7.406,0.379 -11.118,0.558 v 0 c 0.996,-12.108 2.002,-24.205 2.991,-36.32"
         id="path524"
         inkscape:connector-curvature="0" /></clipPath><linearGradient
       x1="0"
       y1="0"
       x2="1"
       y2="0"
       gradientUnits="userSpaceOnUse"
       gradientTransform="matrix(0,40.368164,40.368164,0,649.29584,416.32245)"
       spreadMethod="pad"
       id="linearGradient538"><stop
         style="stop-opacity:1;stop-color:#666666"
         offset="0"
         id="stop532" /><stop
         style="stop-opacity:1;stop-color:#ffffff"
         offset="0.795614"
         id="stop534" /><stop
         style="stop-opacity:1;stop-color:#ffffff"
         offset="1"
         id="stop536" /></linearGradient><clipPath
       clipPathUnits="userSpaceOnUse"
       id="clipPath548"><path
         d="m 774.759,437.54 0.731,-0.501 0.119,-0.878 c 1.61,-11.79 3.216,-23.592 4.816,-35.411 v 0 c 3.732,-0.679 7.479,-1.378 11.186,-2.083 v 0 c -2.019,14.679 -4.046,29.332 -6.084,43.96 v 0 c -0.74,0.52 -1.478,1.025 -2.217,1.541 v 0 c -7.353,0.821 -14.652,1.601 -21.917,2.35 v 0 c 4.553,-3.001 9.039,-6.012 13.366,-8.978"
         id="path546"
         inkscape:connector-curvature="0" /></clipPath><linearGradient
       x1="0"
       y1="0"
       x2="1"
       y2="0"
       gradientUnits="userSpaceOnUse"
       gradientTransform="matrix(0,47.851074,47.851074,0,776.50226,398.66718)"
       spreadMethod="pad"
       id="linearGradient560"><stop
         style="stop-opacity:1;stop-color:#666666"
         offset="0"
         id="stop554" /><stop
         style="stop-opacity:1;stop-color:#ffffff"
         offset="0.795614"
         id="stop556" /><stop
         style="stop-opacity:1;stop-color:#ffffff"
         offset="1"
         id="stop558" /></linearGradient><clipPath
       clipPathUnits="userSpaceOnUse"
       id="clipPath570"><path
         d="m 509.075,425.338 c 3.875,-0.022 7.739,-0.057 11.535,-0.103 v 0 l -0.541,34.593 c -3.704,0.048 -7.425,0.089 -11.164,0.126 v 0 z"
         id="path568"
         inkscape:connector-curvature="0" /></clipPath><linearGradient
       x1="0"
       y1="0"
       x2="1"
       y2="0"
       gradientUnits="userSpaceOnUse"
       gradientTransform="matrix(0,34.719238,34.719238,0,514.75769,425.23456)"
       spreadMethod="pad"
       id="linearGradient582"><stop
         style="stop-opacity:1;stop-color:#666666"
         offset="0"
         id="stop576" /><stop
         style="stop-opacity:1;stop-color:#ffffff"
         offset="0.795614"
         id="stop578" /><stop
         style="stop-opacity:1;stop-color:#ffffff"
         offset="1"
         id="stop580" /></linearGradient><clipPath
       clipPathUnits="userSpaceOnUse"
       id="clipPath592"><path
         d="m 538.339,453.076 1.082,-0.534 0.727,-27.666 c 3.902,-0.096 7.716,-0.201 11.387,-0.315 v 0 c -0.422,11.587 -0.852,23.172 -1.279,34.758 v 0 c -8.428,0.181 -16.93,0.331 -25.521,0.451 v 0 c 4.517,-2.215 9.047,-4.443 13.604,-6.694"
         id="path590"
         inkscape:connector-curvature="0" /></clipPath><linearGradient
       x1="0"
       y1="0"
       x2="1"
       y2="0"
       gradientUnits="userSpaceOnUse"
       gradientTransform="matrix(0,35.208252,35.208252,0,538.13507,424.56171)"
       spreadMethod="pad"
       id="linearGradient604"><stop
         style="stop-opacity:1;stop-color:#666666"
         offset="0"
         id="stop598" /><stop
         style="stop-opacity:1;stop-color:#ffffff"
         offset="0.795614"
         id="stop600" /><stop
         style="stop-opacity:1;stop-color:#ffffff"
         offset="1"
         id="stop602" /></linearGradient><clipPath
       clipPathUnits="userSpaceOnUse"
       id="clipPath614"><path
         d="m 569.402,424.022 c 9.688,-0.406 19.529,-0.909 29.283,-1.494 v 0 l 1.744,-0.104 0.009,-0.118 c 3.869,-0.238 7.674,-0.484 11.359,-0.734 v 0 c -0.67,9.054 -1.341,18.106 -2.015,27.157 v 0 c -3.802,2.038 -7.638,4.074 -11.448,6.081 v 0 l 1.517,-23.231 -2.244,0.114 c -5.126,0.26 -10.256,0.5 -15.386,0.72 v 0 l -1.811,0.078 -0.101,1.808 c -0.45,8.093 -0.906,16.179 -1.358,24.269 v 0 c -3.703,0.114 -7.422,0.22 -11.15,0.321 v 0 c 0.534,-11.622 1.071,-23.241 1.601,-34.867"
         id="path612"
         inkscape:connector-curvature="0" /></clipPath><linearGradient
       x1="0"
       y1="0"
       x2="1"
       y2="0"
       gradientUnits="userSpaceOnUse"
       gradientTransform="matrix(0,37.318359,37.318359,0,589.79889,421.57147)"
       spreadMethod="pad"
       id="linearGradient626"><stop
         style="stop-opacity:1;stop-color:#666666"
         offset="0"
         id="stop620" /><stop
         style="stop-opacity:1;stop-color:#ffffff"
         offset="0.795614"
         id="stop622" /><stop
         style="stop-opacity:1;stop-color:#ffffff"
         offset="1"
         id="stop624" /></linearGradient></defs><sodipodi:namedview
     pagecolor="#ffffff"
     bordercolor="#666666"
     borderopacity="1"
     objecttolerance="10"
     gridtolerance="10"
     guidetolerance="10"
     inkscape:pageopacity="0"
     inkscape:pageshadow="2"
     inkscape:window-width="1920"
     inkscape:window-height="1055"
     id="namedview4"
     showgrid="false"
     inkscape:zoom="5.6640003"
     inkscape:cx="64.082389"
     inkscape:cy="37.386504"
     inkscape:window-x="0"
     inkscape:window-y="0"
     inkscape:window-maximized="1"
     inkscape:current-layer="g10" /><g
     id="g10"
     inkscape:groupmode="layer"
     inkscape:label="Footballer Tips Logo Color"
     transform="matrix(1.3333333,0,0,-1.3333333,0,62.000048)"><g
       id="g12"
       transform="matrix(0.11974455,0,0,0.11974455,-19.717938,-28.677321)"
       style="stroke-width:8.35111141"><g
         id="g14"
         clip-path="url(#clipPath18)"
         style="stroke-width:8.35111141"><g
           id="g20"
           style="stroke-width:8.35111141"><g
             id="g22"
             style="stroke-width:8.35111141"><path
               d="M 402.043,530.795 H 194.446 l -2.573,-19.902 c -0.126,-0.952 -0.901,-6.124 -2.259,-15.185 v 0 l -0.107,-0.713 c -4.006,-26.72 -11.464,-76.456 -15.176,-104.3 v 0 l -4.166,-31.239 30.955,5.922 c 55.475,10.612 103.916,17.744 152.445,22.444 v 0 l 9.286,0.898 3.891,-21.104 -1.085,-2.724 c -2.825,-7.092 -21.405,-53.803 -21.405,-53.803 v 0 l 34.022,8.169 c 19.251,4.625 38.859,8.322 58.277,10.992 v 0 l 63.453,8.722 63.446,-8.722 c 19.422,-2.671 39.031,-6.369 58.279,-10.99 v 0 l 34.016,-8.171 -5.265,13.246 c 0,0 -11.35,28.541 -16.136,40.557 v 0 l -1.084,2.724 3.891,21.104 9.287,-0.898 c 48.53,-4.7 96.969,-11.832 152.442,-22.444 v 0 l 30.955,-5.922 -4.166,31.241 c -2.919,21.885 -8.576,60.712 -16.817,115.401 v 0 c 0,0 -0.672,4.462 -0.728,4.842 v 0 l -2.568,19.855 H 597.957"
               style="fill:url(#linearGradient30);stroke:none;stroke-width:8.35111141"
               id="path32"
               inkscape:connector-curvature="0"
               sodipodi:nodetypes="ccccccccccccccccccccccccccccccccccccccccc" /></g></g></g></g><g
       id="g270"
       transform="matrix(0.11974455,0,0,0.11974455,76.109973,15.944132)"
       style="stroke-width:8.35111141"><path
         d="M 0,0 C -109.98,21.042 -195.392,28.851 -300.27,29.832 -405.147,28.851 -490.56,21.042 -600.538,0 l -20.882,-3.995 2.81,21.075 c 5.003,37.524 17.069,116.544 17.548,120.25 l 1.737,13.433 H -1.213 L 0.514,137.401 C 0.625,136.542 12.931,55.625 18.071,17.081 l 2.811,-21.076 z"
         style="fill:#000000;fill-opacity:1;fill-rule:nonzero;stroke:none;stroke-width:8.35111141"
         id="path272"
         inkscape:connector-curvature="0" /></g><g
       id="g274"
       transform="matrix(0.11974455,0,0,0.11974455,54.937412,10.412964)"
       style="stroke-width:8.35111141"><path
         d="m 0,0 c -19.491,4.681 -39.34,8.424 -58.998,11.127 l -48.748,6.702 -0.131,5.471 8.27,1.546 c -8.024,0.34 -16.023,0.511 -23.94,0.511 -7.873,-10e-4 -15.822,-0.17 -23.788,-0.506 l 8.303,-1.551 -0.131,-5.472 -48.748,-6.701 C -207.567,8.425 -227.417,4.681 -246.908,0 l -20.155,-4.84 7.661,19.26 c 3.448,8.671 6.897,17.334 10.346,25.993 l -5.491,29.779 10.113,2.251 c 5.421,1.205 10.997,2.366 16.603,3.454 l 0.923,8.667 8.112,1.303 c 31.379,5.041 63.197,7.597 94.573,7.597 31.27,0 63.022,-2.535 94.389,-7.536 l 7.829,-1.248 1.202,-8.451 c 6.196,-1.185 12.352,-2.457 18.328,-3.786 L 7.639,70.192 2.148,40.413 C 5.597,31.754 18.178,0.129 18.178,0.129 l 1.976,-4.969 z"
         style="fill:#000000;fill-opacity:1;fill-rule:nonzero;stroke:none;stroke-width:8.35111141"
         id="path276"
         inkscape:connector-curvature="0" /></g><g
       id="g278"
       transform="matrix(0.11974455,0,0,0.11974455,30.108368,14.863151)"
       style="stroke-width:8.35111141"><path
         d="m 0,0 c 6.284,-0.945 12.569,-1.913 18.854,-2.903 0.094,1.334 0.189,2.677 0.282,4.002 0.808,11.489 1.594,22.651 2.357,33.499 -18.629,-2.35 -37.372,-5.611 -56.243,-9.809 1.391,-7.546 2.782,-15.092 4.173,-22.64 -3.83,-9.613 -7.66,-19.234 -11.49,-28.864 20.161,4.842 40.17,8.591 60.043,11.323 -10.93,2.042 -21.857,4.017 -32.784,5.924 C -9.872,-6.298 -4.936,-3.142 0,0"
         style="fill:#a80524;fill-opacity:1;fill-rule:nonzero;stroke:none;stroke-width:8.35111141"
         id="path280"
         inkscape:connector-curvature="0" /></g><g
       id="g282"
       transform="matrix(0.11974455,0,0,0.11974455,47.626852,19.006037)"
       style="stroke-width:8.35111141"><path
         d="m 0,0 c 18.629,-2.35 37.373,-5.611 56.243,-9.809 -1.391,-7.545 -2.782,-15.092 -4.174,-22.639 3.831,-9.614 7.661,-19.235 11.491,-28.865 -20.162,4.842 -40.17,8.592 -60.043,11.324 10.929,2.041 21.858,4.016 32.784,5.924 C 31.365,-40.896 0.763,-10.848 0,0"
         style="fill:#a80524;fill-opacity:1;fill-rule:nonzero;stroke:none;stroke-width:8.35111141"
         id="path284"
         inkscape:connector-curvature="0" /></g><g
       id="g286"
       transform="matrix(0.11974455,0,0,0.11974455,51.973675,13.729445)"
       style="stroke-width:8.35111141"><path
         d="m 0,0 c -66.047,11.215 -131.677,11.203 -197.407,0 1.759,16.516 3.446,32.355 5.066,47.56 61.776,9.924 123.506,9.954 185.564,0.06 C -4.61,32.397 -2.353,16.538 0,0"
         style="fill:#dd1e3d;fill-opacity:1;fill-rule:nonzero;stroke:none;stroke-width:8.35111141"
         id="path288"
         inkscape:connector-curvature="0" /></g><g
       id="g290"
       transform="matrix(0.11974455,0,0,0.11974455,32.451338,17.973707)"
       style="stroke-width:8.35111141"><path
         d="M 0,0 C -2.748,-0.385 -5.493,-0.794 -8.235,-1.229 -8.003,0.937 -7.771,3.102 -7.54,5.267 0.401,6.524 8.366,7.573 16.348,8.411 16.193,6.256 16.038,4.101 15.883,1.946 13.127,1.656 10.373,1.342 7.621,1.003 7.057,-5.725 6.492,-12.453 5.928,-19.181 3.31,-19.503 0.693,-19.848 -1.921,-20.214 -1.281,-13.476 -0.64,-6.738 0,0"
         style="fill:#ffffff;fill-opacity:1;fill-rule:nonzero;stroke:none;stroke-width:8.35111141"
         id="path292"
         inkscape:connector-curvature="0" /></g><g
       id="g294"
       transform="matrix(0.11974455,0,0,0.11974455,37.046822,19.193892)"
       style="stroke-width:8.35111141"><path
         d="M 0,0 C 2.542,0.144 5.085,0.267 7.629,0.368 7.386,-8.477 7.143,-17.322 6.899,-26.167 4.254,-26.273 1.61,-26.401 -1.033,-26.55 -0.689,-17.7 -0.345,-8.85 0,0"
         style="fill:#ffffff;fill-opacity:1;fill-rule:nonzero;stroke:none;stroke-width:8.35111141"
         id="path296"
         inkscape:connector-curvature="0" /></g><g
       id="g298"
       transform="matrix(0.11974455,0,0,0.11974455,42.167255,17.666802)"
       style="stroke-width:8.35111141"><path
         d="M 0,0 C 1.383,-0.049 2.459,0.216 3.226,0.806 3.991,1.395 4.355,2.22 4.322,3.289 4.321,3.314 4.32,3.339 4.319,3.365 4.284,4.508 3.866,5.397 3.071,6.028 2.275,6.658 1.181,7.001 -0.213,7.051 -1.412,7.094 -2.61,7.132 -3.809,7.166 L -3.672,0.117 C -2.448,0.083 -1.224,0.044 0,0 M -11.523,13.456 C -7.607,13.411 -3.692,13.316 0.222,13.17 1.944,13.107 3.514,12.831 4.938,12.347 6.362,11.863 7.584,11.192 8.61,10.342 9.634,9.489 10.441,8.464 11.028,7.269 11.614,6.073 11.942,4.74 12.004,3.274 12.005,3.249 12.006,3.224 12.007,3.199 12.074,1.629 11.834,0.271 11.286,-0.882 10.736,-2.035 9.942,-2.985 8.904,-3.735 7.866,-4.486 6.608,-5.026 5.134,-5.361 3.66,-5.697 2.048,-5.83 0.304,-5.767 c -1.288,0.047 -2.577,0.088 -3.865,0.124 0.049,-2.526 0.098,-5.053 0.146,-7.579 -2.632,0.074 -5.265,0.125 -7.898,0.156 -0.07,8.84 -0.14,17.681 -0.21,26.522"
         style="fill:#ffffff;fill-opacity:1;fill-rule:nonzero;stroke:none;stroke-width:8.35111141"
         id="path300"
         inkscape:connector-curvature="0" /></g><g
       id="g302"
       transform="matrix(0.11974455,0,0,0.11974455,47.739053,15.546832)"
       style="stroke-width:8.35111141"><path
         d="m 0,0 c -2.536,0.339 -4.981,1.011 -7.32,2.021 -2.34,1.01 -4.439,2.342 -6.292,4.006 1.333,1.486 2.656,2.967 3.967,4.441 2.967,-2.451 6.102,-3.892 9.365,-4.331 1.043,-0.139 1.823,-0.091 2.341,0.15 0.517,0.24 0.748,0.652 0.692,1.236 L 2.746,7.599 C 2.719,7.878 2.628,8.136 2.475,8.37 2.32,8.604 2.055,8.848 1.676,9.102 1.298,9.354 0.801,9.617 0.185,9.889 c -0.616,0.272 -1.411,0.573 -2.386,0.902 -1.519,0.524 -2.93,1.059 -4.238,1.607 -1.308,0.548 -2.457,1.185 -3.447,1.914 -0.99,0.728 -1.79,1.583 -2.401,2.566 -0.611,0.983 -0.966,2.159 -1.067,3.525 -0.002,0.026 -0.004,0.051 -0.005,0.076 -0.092,1.24 0.067,2.354 0.473,3.338 0.407,0.985 1.043,1.806 1.909,2.46 0.865,0.654 1.929,1.113 3.194,1.373 1.263,0.26 2.71,0.286 4.343,0.071 2.334,-0.307 4.438,-0.9 6.325,-1.767 1.886,-0.868 3.631,-2.009 5.237,-3.42 -1.075,-1.553 -2.161,-3.109 -3.257,-4.668 -1.345,1.051 -2.698,1.892 -4.061,2.521 -1.364,0.63 -2.658,1.025 -3.888,1.186 -0.916,0.12 -1.588,0.043 -2.018,-0.23 -0.43,-0.272 -0.625,-0.648 -0.584,-1.129 0.002,-0.026 0.005,-0.051 0.007,-0.077 0.026,-0.304 0.12,-0.579 0.284,-0.825 0.164,-0.247 0.433,-0.486 0.804,-0.723 0.371,-0.235 0.874,-0.487 1.509,-0.758 0.635,-0.271 1.436,-0.57 2.402,-0.902 1.61,-0.544 3.074,-1.132 4.396,-1.762 1.32,-0.63 2.462,-1.333 3.425,-2.105 0.962,-0.771 1.73,-1.647 2.301,-2.624 C 10.014,9.46 10.368,8.347 10.501,7.102 10.504,7.077 10.507,7.051 10.509,7.026 10.656,5.653 10.514,4.475 10.08,3.494 9.645,2.511 8.969,1.723 8.053,1.124 7.137,0.524 5.997,0.131 4.635,-0.061 3.272,-0.252 1.727,-0.231 0,0"
         style="fill:#ffffff;fill-opacity:1;fill-rule:nonzero;stroke:none;stroke-width:8.35111141"
         id="path304"
         inkscape:connector-curvature="0" /></g><g
       id="g306"
       transform="matrix(0.11974455,0,0,0.11974455,66.954425,24.504467)"
       style="stroke-width:8.35111141"><path
         d="M 0,0 C -0.584,4.827 -1.17,9.653 -1.757,14.476 1.687,12.366 5.129,10.251 8.57,8.131 9.225,3.158 9.878,-1.818 10.531,-6.797 7.055,-4.524 3.533,-2.244 0,0 M 63.384,67.679 H -56.185 c 2.127,-18.771 4.243,-37.56 6.349,-56.368 -4.754,2.756 -9.633,5.542 -14.537,8.299 -3.886,2.185 -7.774,4.366 -11.665,6.542 -1.246,13.85 -2.496,27.692 -3.751,41.527 h -33.179 c 1.492,-17.762 2.977,-35.533 4.456,-53.311 -4.763,2.55 -9.769,5.203 -14.913,7.895 -3.652,1.895 -7.304,3.786 -10.959,5.675 -0.732,13.25 -1.466,26.496 -2.203,39.741 h -374.418 c -5.944,-42.259 -11.818,-84.717 -17.621,-127.397 4.163,0.82 8.327,1.635 12.492,2.445 5.042,0.983 10.172,1.95 15.248,2.879 2.191,0.402 4.383,0.802 6.574,1.201 1.813,13.327 3.633,26.635 5.459,39.924 0.776,-0.424 1.55,-0.846 2.321,-1.263 3.86,-2.089 7.718,-4.176 11.573,-6.258 1.564,11.648 3.133,23.283 4.707,34.905 0.633,-0.378 1.266,-0.755 1.899,-1.131 2.334,-1.383 4.666,-2.765 6.998,-4.146 -2.418,-19.19 -4.823,-38.411 -7.215,-57.666 3.973,0.606 7.948,1.209 11.923,1.808 15.279,2.302 30.773,4.386 46.05,6.195 2.311,0.275 4.622,0.548 6.933,0.821 2.268,0.25 4.535,0.499 6.802,0.747 15.33,1.68 30.883,3.143 46.228,4.357 2.593,0.206 5.186,0.409 7.779,0.612 1.925,23.418 3.862,46.821 5.811,70.209 3.286,0.043 7.349,0.097 9.734,0.126 -1.499,-23.17 -2.987,-46.35 -4.467,-69.54 3.455,0.212 6.909,0.424 10.363,0.634 5.012,0.304 10.209,0.594 15.447,0.861 2.744,0.139 5.488,0.276 8.232,0.414 1.267,22.665 2.541,45.324 3.823,67.978 3.225,0.026 6.448,0.051 9.672,0.077 -0.81,-22.523 -1.615,-45.049 -2.415,-67.578 3.27,0.109 6.541,0.218 9.811,0.325 15.309,0.5 30.876,0.787 46.267,0.853 2.265,0.009 4.531,0.018 6.797,0.026 2.338,-0.008 4.676,-0.017 7.014,-0.027 5.13,-0.025 10.335,-0.071 15.473,-0.141 2.549,-0.035 5.099,-0.072 7.648,-0.108 2.606,-0.059 5.212,-0.12 7.818,-0.181 5.177,-0.12 10.333,-0.266 15.327,-0.431 3.272,-0.107 6.544,-0.217 9.816,-0.327 -0.001,0.032 -0.002,0.062 -0.003,0.094 1.329,-0.055 2.658,-0.109 3.987,-0.165 7.539,-0.311 15.185,-0.684 22.761,-1.103 0.002,-0.033 0.003,-0.066 0.005,-0.099 2.714,-0.163 5.428,-0.328 8.142,-0.493 5.19,-0.317 10.339,-0.655 15.305,-1.007 3.519,-0.247 7.038,-0.497 10.557,-0.749 -0.002,0.031 -0.004,0.062 -0.007,0.093 1.073,-0.084 2.145,-0.17 3.218,-0.254 7.7,-0.612 15.556,-1.294 23.385,-2.032 0.003,-0.035 0.007,-0.071 0.011,-0.107 2.482,-0.245 4.963,-0.491 7.445,-0.737 5.065,-0.503 10.199,-1.04 15.261,-1.595 2.216,-0.243 4.432,-0.486 6.649,-0.73 2.361,-0.279 4.721,-0.558 7.081,-0.839 15.258,-1.811 30.706,-3.889 45.914,-6.179 2.297,-0.346 4.594,-0.693 6.89,-1.042 v -0.001 c 2.261,-0.36 4.521,-0.721 6.782,-1.083 4.988,-0.8 10.134,-1.656 15.295,-2.541 2.899,-0.497 5.798,-0.996 8.696,-1.497 0,-0.003 0.001,-0.006 0.001,-0.009 2.192,-0.399 4.383,-0.799 6.574,-1.201 5.064,-0.926 10.195,-1.895 15.25,-2.879 4.164,-0.81 8.328,-1.625 12.491,-2.445 -5.803,42.68 -11.678,85.138 -17.622,127.397"
         style="fill:#a80524;fill-opacity:1;fill-rule:nonzero;stroke:none;stroke-width:8.35111141"
         id="path308"
         inkscape:connector-curvature="0" /></g><g
       id="g310"
       transform="matrix(0.11974455,0,0,0.11974455,37.177212,27.777492)"
       style="stroke-width:8.35111141"><path
         d="M 0,0 0.23,15.107 C -2.471,15.1 -5.173,15.091 -7.875,15.082 L -8.169,3.988 C -5.454,2.66 -2.731,1.331 0,0 m -9.123,-32.342 c 2.878,0.049 5.756,0.095 8.633,0.132 l 0.154,10.118 c -2.812,1.346 -5.617,2.69 -8.412,4.031 z m -22.81,-19.111 c 1.025,28.376 2.058,56.747 3.098,85.115 l 0.033,0.89 50.637,0.007 -0.209,-42.408 -2.675,-1.299 2.662,-1.282 -0.201,-41.035 -3.34,-0.012 c -15.547,-0.065 -31.168,-0.35 -46.432,-0.847 l -3.608,-0.119 z m 81.998,55.57 c 1,-0.471 3.217,-1.566 8.337,-4.096 L 58,15.079 c -2.702,0.011 -5.404,0.019 -8.106,0.027 z m 28.299,-56.45 c -5.433,0.175 -10.609,0.32 -15.382,0.428 l -3.207,0.075 -0.78,29.535 c -2.869,1.417 -5.732,2.825 -8.584,4.227 l 0.517,-33.599 -3.469,0.049 c -5.141,0.071 -10.365,0.118 -15.526,0.139 l -3.339,0.016 -0.441,86.022 50.638,-0.007 0.033,-0.89 c 1.047,-28.37 2.084,-56.745 3.114,-85.124 l 0.036,-0.991 z m -155.197,-1.241 c 1.466,22.735 2.941,45.461 4.425,68.178 -3.72,-0.042 -7.441,-0.085 -11.161,-0.132 l -3.708,-0.048 1.503,20.102 0.857,10e-4 c 16.278,0.01 32.556,0.018 48.834,0.022 h 0.969 l -0.908,-19.617 c 0,0 -10.889,-0.082 -14.734,-0.116 -1.26,-22.45 -2.512,-44.906 -3.757,-67.369 l -0.046,-0.83 -3.026,-0.152 c -5.144,-0.258 -10.359,-0.546 -15.503,-0.855 l -3.812,-0.229 z m 215.423,-1.841 c -5.013,0.35 -10.181,0.686 -15.359,1 l -3.007,0.183 -0.006,0.113 c -9.184,0.537 -18.601,1.005 -28.007,1.39 l -3.086,0.126 -0.039,0.847 c -1.303,28.454 -2.616,56.9 -3.939,85.338 l -0.045,0.967 21.451,-0.009 0.049,-0.872 c 1.263,-22.486 2.518,-44.979 3.765,-67.48 2.883,-0.127 5.754,-0.26 8.591,-0.398 l -1.755,26.774 5.34,-2.794 c 5.44,-2.853 10.693,-5.638 15.615,-8.279 l 1.629,-0.874 2.686,-36.303 z m -262.047,69.298 c -1.714,-17.332 -3.42,-34.678 -5.118,-52.037 2.835,0.229 5.682,0.451 8.517,0.667 1.541,17.178 3.09,34.346 4.646,51.504 z m -29.375,-73.948 c 3.235,31.128 6.546,62.66 9.84,93.721 l 0.088,0.825 50.83,0.041 -0.083,-1.001 c -2.459,-29.567 -4.925,-59.488 -7.33,-88.932 l -0.064,-0.785 -2.861,-0.224 c -15.507,-1.217 -31.116,-2.675 -46.393,-4.333 l -4.145,-0.449 z m 351.502,-0.703 c -5.088,0.554 -10.241,1.087 -15.313,1.585 l -2.727,0.268 -0.016,0.123 c -9.361,0.905 -18.847,1.736 -28.208,2.47 l -2.86,0.225 -0.065,0.784 c -2.376,29.049 -4.844,58.936 -7.335,88.834 l -0.083,1.001 21.476,-0.016 0.076,-0.839 c 2.158,-23.664 4.302,-47.349 6.433,-71.054 2.857,-0.218 5.704,-0.442 8.516,-0.666 -0.87,8.88 -2.79,28.395 -2.79,28.395 l 5.66,-3.182 c 5.299,-2.981 10.647,-6.041 15.891,-9.094 l 1.479,-0.861 0.049,-0.467 c 1.285,-12.265 2.567,-24.538 3.845,-36.819 l 0.118,-1.137 z m -379.9,73.465 c -2.327,-18.852 -4.641,-37.732 -6.943,-56.636 2.779,0.315 5.592,0.631 8.415,0.938 2.163,18.652 4.339,37.28 6.524,55.887 -2.665,-0.061 -5.331,-0.125 -7.996,-0.189 m -31.807,-80.62 c 4.215,33.659 8.545,67.821 12.87,101.536 l 0.104,0.806 50.876,0.057 -0.115,-1.028 c -3.518,-31.277 -7.065,-63.143 -10.542,-94.716 l -0.081,-0.731 -2.663,-0.314 c -15.432,-1.814 -30.98,-3.888 -46.212,-6.163 l -4.388,-0.656 z m 442.659,24.907 c 2.799,-0.305 5.611,-0.619 8.413,-0.939 l -1.568,12.858 c -2.823,1.729 -5.794,3.527 -8.855,5.359 0.671,-5.757 1.341,-11.517 2.01,-17.278 m 28.903,-25.46 c -15.138,2.262 -30.64,4.331 -46.074,6.148 l -2.663,0.313 -0.08,0.731 c -3.479,31.57 -7.029,63.441 -10.549,94.73 l -0.116,1.029 50.746,-0.056 0.103,-0.806 c 1.835,-14.296 3.662,-28.611 5.482,-42.941 l 0.243,-1.911 -6.014,3.685 c -5.098,3.118 -10.435,6.32 -15.864,9.514 l -1.431,0.84 -1.219,9.893 -7.996,0.188 1.542,-13.14 c 4.995,-2.866 9.902,-5.73 14.592,-8.517 l 1.423,-0.845 c 0,0 1.749,-14.324 2.595,-21.266 5.021,-3.176 10.023,-6.404 14.873,-9.597 l 1.305,-0.861 0.054,-0.421 c 1.098,-8.712 2.193,-17.432 3.285,-26.157 l 0.152,-1.209 z m 24.23,64.614 c 2.901,-1.85 5.835,-3.746 8.749,-5.652 -0.946,6.874 -1.896,13.745 -2.847,20.61 0,0 -5.495,0.172 -7.95,0.246 0.684,-5.065 1.367,-10.134 2.048,-15.204 m 35.466,-74.815 c -5.004,0.966 -10.152,1.929 -15.302,2.866 l -2.416,0.438 -0.09,0.665 c -1.679,12.393 -3.365,24.77 -5.055,37.13 -2.917,1.992 -5.898,4.001 -8.887,5.99 1.825,-13.664 3.642,-27.349 5.453,-41.052 l 0.164,-1.243 -4.495,0.766 c -5.223,0.888 -10.386,1.738 -15.348,2.526 l -2.493,0.397 -0.089,0.685 c -4.405,34.074 -8.937,68.686 -13.471,102.873 l -0.138,1.047 1.055,-0.001 c 16.354,-0.02 32.709,-0.043 49.063,-0.069 l 0.802,-10e-4 0.112,-0.794 c 2.497,-17.688 4.981,-35.411 7.455,-53.17 l 0.083,-0.604 c 0,0 -3.18,-1.916 -3.79,-2.282 1.113,-0.776 2.229,-1.556 3.344,-2.343 l 1.209,-0.848 0.055,-0.399 c 2.412,-17.362 4.814,-34.756 7.204,-52.189 l 0.176,-1.277 z m -591.141,0.388 c 5.072,37.008 10.307,74.635 15.559,111.835 l 0.112,0.794 50.92,0.071 -0.138,-1.047 c -1.933,-14.575 -3.859,-29.168 -5.775,-43.781 l -0.182,-1.388 -4.376,2.595 c -4.593,2.725 -9.227,5.555 -13.773,8.412 l -1.887,1.186 1.477,10.954 c -2.65,-0.08 -5.3,-0.161 -7.949,-0.244 -0.738,-5.33 -1.475,-10.662 -2.212,-15.996 3.849,-2.401 7.787,-4.797 11.718,-7.128 l 1.966,-1.166 -0.082,-0.607 c -1.065,-7.914 -2.129,-15.836 -3.19,-23.764 l -0.178,-1.328 -4.268,2.312 c -3.218,1.746 -6.438,3.528 -9.592,5.308 -1.98,-14.456 -3.953,-28.937 -5.917,-43.437 l -0.09,-0.665 -2.415,-0.438 c -5.153,-0.938 -10.302,-1.901 -15.303,-2.866 l -4.601,-0.89 z"
         style="fill:#feb724;fill-opacity:1;fill-rule:nonzero;stroke:none;stroke-width:8.35111141"
         id="path312"
         inkscape:connector-curvature="0" /></g><g
       id="g314"
       transform="matrix(0.11974455,0,0,0.11974455,70.932901,27.249287)"
       style="stroke-width:8.35111141"><path
         d="M 0,0 C -0.75,5.573 -1.5,11.143 -2.251,16.71 1.022,16.612 4.295,16.509 7.568,16.407 8.647,8.614 9.725,0.815 10.8,-6.99 7.231,-4.645 3.618,-2.306 0,0 m 32.629,-21.816 -0.88,0.619 c -1.507,1.061 -3.013,2.114 -4.517,3.158 1.02,0.606 2.039,1.218 3.057,1.831 0.479,0.29 0.959,0.579 1.439,0.868 -2.473,17.758 -4.958,35.48 -7.455,53.168 -16.354,0.026 -32.708,0.048 -49.062,0.069 4.533,-34.189 9.024,-68.479 13.472,-102.876 0.603,-0.097 1.207,-0.192 1.81,-0.288 5.033,-0.8 10.199,-1.651 15.358,-2.528 1.086,-0.185 2.173,-0.37 3.259,-0.555 -1.9,14.378 -3.807,28.734 -5.722,43.07 3.665,-2.428 7.324,-4.888 10.932,-7.355 1.71,-12.496 3.413,-25.008 5.111,-37.538 0.585,-0.107 1.17,-0.213 1.755,-0.318 5.073,-0.922 10.225,-1.886 15.311,-2.867 1.112,-0.214 2.224,-0.43 3.336,-0.645 -2.39,17.431 -4.791,34.826 -7.204,52.187 m -85.738,-17.628 c -0.769,6.627 -1.539,13.251 -2.311,19.872 3.665,-2.186 7.298,-4.38 10.853,-6.559 0.589,-4.819 1.177,-9.64 1.765,-14.464 -3.43,0.393 -6.88,0.779 -10.307,1.151 m 28.82,2.6 c -4.976,3.276 -10.094,6.576 -15.229,9.822 -0.862,7.087 -1.726,14.17 -2.592,21.25 -0.344,0.205 -0.688,0.409 -1.033,0.613 -4.908,2.917 -9.944,5.853 -14.983,8.741 -0.573,4.888 -1.146,9.774 -1.721,14.659 3.286,-0.074 6.572,-0.154 9.858,-0.232 0.422,-3.409 0.842,-6.82 1.262,-10.232 0.346,-0.203 0.692,-0.406 1.038,-0.61 5.355,-3.15 10.696,-6.353 15.876,-9.521 1.458,-0.893 2.915,-1.786 4.372,-2.68 -1.82,14.331 -3.646,28.644 -5.481,42.942 -16.299,0.02 -32.599,0.038 -48.898,0.054 3.547,-31.522 7.063,-63.098 10.549,-94.733 0.644,-0.076 1.288,-0.152 1.933,-0.228 15.315,-1.804 30.828,-3.87 46.104,-6.151 1.061,-0.159 2.121,-0.317 3.182,-0.477 -1.093,8.726 -2.188,17.444 -3.285,26.156 -0.317,0.209 -0.634,0.418 -0.952,0.627 m -60.748,18.522 c -5.186,3.019 -10.529,6.078 -15.88,9.088 -1.371,0.772 -2.742,1.543 -4.113,2.313 0.91,-9.24 1.818,-18.483 2.724,-27.73 -3.423,0.275 -6.902,0.548 -10.394,0.813 -2.154,23.965 -4.321,47.908 -6.503,71.832 -6.542,0.005 -13.085,0.01 -19.627,0.014 2.465,-29.587 4.91,-59.197 7.335,-88.833 0.692,-0.054 1.384,-0.11 2.076,-0.164 9.629,-0.755 19.361,-1.61 28.965,-2.543 0.004,-0.041 0.009,-0.082 0.013,-0.124 0.664,-0.065 1.327,-0.13 1.991,-0.196 5.12,-0.502 10.275,-1.037 15.323,-1.586 1.002,-0.109 2.005,-0.218 3.008,-0.327 -1.277,12.281 -2.559,24.553 -3.845,36.818 -0.357,0.209 -0.715,0.417 -1.073,0.625 m -59.139,3.41 c -5.035,2.701 -10.285,5.484 -15.607,8.274 l -3.882,2.033 c 0.573,-8.722 1.145,-17.444 1.715,-26.168 -3.444,0.17 -6.944,0.333 -10.457,0.486 -1.262,22.779 -2.532,45.551 -3.811,68.315 -6.536,0.003 -13.073,0.006 -19.609,0.009 1.324,-28.44 2.636,-56.886 3.939,-85.339 l 2.24,-0.093 c 9.604,-0.393 19.299,-0.875 28.853,-1.439 0.002,-0.039 0.004,-0.077 0.006,-0.116 0.727,-0.044 1.453,-0.087 2.179,-0.132 5.166,-0.312 10.336,-0.648 15.366,-1 0.94,-0.065 1.879,-0.131 2.819,-0.197 -0.854,11.581 -1.711,23.159 -2.57,34.734 -0.394,0.211 -0.788,0.422 -1.181,0.633 m -88.572,22.876 c -0.064,4.16 -0.129,8.32 -0.193,12.48 3.314,-0.01 6.629,-0.019 9.943,-0.033 0.156,-5.829 0.312,-11.658 0.467,-17.487 -2.831,1.4 -10.216,5.041 -10.217,5.04 m -20.068,30.082 c 0.145,-28.059 0.289,-56.119 0.432,-84.179 0.808,-0.004 1.615,-0.007 2.423,-0.01 5.09,-0.022 10.317,-0.068 15.535,-0.14 0.84,-0.011 1.679,-0.023 2.518,-0.034 -0.175,11.385 -0.351,22.771 -0.527,34.155 3.468,-1.703 6.949,-3.415 10.442,-5.14 0.258,-9.737 0.515,-19.475 0.772,-29.214 0.776,-0.017 1.551,-0.036 2.327,-0.053 5.14,-0.118 10.318,-0.265 15.391,-0.43 0.873,-0.028 1.747,-0.057 2.62,-0.085 -1.03,28.379 -2.068,56.753 -3.114,85.123 -16.273,0.004 -32.546,0.007 -48.819,0.007 M -291.532,-12.2 c 3.398,-1.631 6.808,-3.265 10.232,-4.903 -0.059,-3.87 -0.118,-7.739 -0.177,-11.609 -3.498,-0.042 -6.995,-0.099 -10.493,-0.16 0.146,5.558 0.292,11.115 0.438,16.672 m 0.859,32.613 c 3.315,0.012 6.63,0.024 9.945,0.032 -0.089,-5.833 -0.178,-11.668 -0.268,-17.501 -3.349,1.63 -6.685,3.258 -10.01,4.887 0.111,4.193 0.222,8.388 0.333,12.582 m -22.234,-67.488 c 0.873,0.029 1.746,0.057 2.619,0.085 15.377,0.501 31.009,0.783 46.458,0.848 0.809,0.003 1.617,0.007 2.425,0.01 0.064,13.178 0.129,26.356 0.194,39.534 -1.287,0.619 -2.573,1.238 -3.859,1.857 1.292,0.628 2.584,1.255 3.877,1.883 0.067,13.634 0.135,27.27 0.202,40.904 -16.273,0 -32.545,-0.003 -48.818,-0.007 -1.041,-28.367 -2.073,-56.738 -3.098,-85.114 m -55.271,66.847 c 0.9,0.012 1.801,0.023 2.7,0.035 4.053,0.051 8.106,0.097 12.16,0.142 -1.506,-23.047 -3.003,-46.105 -4.49,-69.172 0.922,0.056 1.844,0.111 2.766,0.166 5.177,0.311 10.396,0.6 15.513,0.857 0.732,0.036 1.464,0.074 2.196,0.11 1.261,22.751 2.529,45.495 3.805,68.234 4.134,0.036 8.269,0.07 12.403,0.099 0.775,0.007 1.549,0.012 2.323,0.018 0.274,5.926 0.548,11.851 0.822,17.776 -16.278,-0.006 -32.556,-0.014 -48.834,-0.024 -0.456,-6.079 -0.91,-12.159 -1.364,-18.241 m -38.015,-0.567 c 3.299,0.055 6.598,0.111 9.897,0.164 -1.611,-17.758 -3.214,-35.527 -4.809,-53.308 -3.457,-0.261 -6.937,-0.534 -10.395,-0.814 1.761,18 3.53,35.985 5.307,53.958 M -433.81,-55.75 c 1.003,0.109 2.005,0.218 3.008,0.327 15.389,1.67 31.008,3.125 46.42,4.336 0.692,0.054 1.384,0.108 2.076,0.162 2.424,29.67 4.868,59.313 7.33,88.933 -16.331,-0.01 -32.663,-0.023 -48.994,-0.038 -3.308,-31.191 -6.588,-62.429 -9.84,-93.72 m -27.013,16.321 c -3.461,-0.375 -6.911,-0.762 -10.307,-1.15 2.381,19.559 4.776,39.088 7.183,58.591 3.286,0.081 6.572,0.158 9.858,0.233 -2.257,-19.201 -4.501,-38.425 -6.734,-57.674 m -20.324,77.337 c -4.33,-33.752 -8.62,-67.594 -12.87,-101.535 1.061,0.159 2.122,0.318 3.183,0.477 15.329,2.289 30.888,4.36 46.241,6.167 0.644,0.075 1.288,0.151 1.932,0.227 3.484,31.63 6.998,63.201 10.543,94.718 -16.343,-0.016 -32.686,-0.034 -49.029,-0.054 M -511.978,4.396 c 4.481,-2.816 9.108,-5.645 13.752,-8.401 1.057,-0.627 2.113,-1.254 3.17,-1.88 1.917,14.613 3.842,29.206 5.775,43.782 -16.354,-0.021 -32.708,-0.044 -49.062,-0.069 -5.241,-37.12 -10.427,-74.392 -15.559,-111.831 1.111,0.215 2.223,0.43 3.335,0.645 5.079,0.98 10.231,1.943 15.311,2.867 0.585,0.106 1.17,0.212 1.755,0.318 2.026,14.953 4.061,29.883 6.104,44.789 3.527,-2.003 7.134,-4.003 10.762,-5.97 1.03,-0.559 2.059,-1.117 3.089,-1.674 1.062,7.927 2.125,15.849 3.191,23.764 -0.48,0.285 -0.96,0.569 -1.44,0.854 -4.145,2.458 -8.257,4.964 -12.243,7.455 0.798,5.791 1.599,11.579 2.4,17.363 3.272,0.103 6.545,0.203 9.819,0.302 -0.515,-3.814 -1.03,-7.628 -1.543,-11.443 0.461,-0.291 0.923,-0.581 1.384,-0.871"
         style="fill:#000000;fill-opacity:1;fill-rule:nonzero;stroke:none;stroke-width:8.35111141"
         id="path316"
         inkscape:connector-curvature="0" /></g><g
       id="g318"
       transform="matrix(0.11974455,0,0,0.11974455,70.660195,27.067276)"
       style="stroke-width:8.35111141"><path
         d="M 0,0 C -0.935,6.947 -1.872,13.887 -2.812,20.823 2.125,20.678 7.061,20.528 11.996,20.375 13.422,10.066 14.844,-0.255 16.262,-10.586 10.823,-6.961 5.402,-3.435 0,0 m 32.631,-21.767 c -2.591,1.829 -5.179,3.627 -7.764,5.405 2.163,1.266 4.321,2.55 6.474,3.849 -2.299,16.479 -4.61,32.924 -6.93,49.344 -14.701,0.031 -29.401,0.06 -44.101,0.086 4.315,-32.634 8.593,-65.361 12.832,-98.188 5.13,-0.814 10.256,-1.655 15.379,-2.524 -1.995,15.057 -3.998,30.09 -6.01,45.102 5.436,-3.552 10.889,-7.195 16.36,-10.945 1.675,-12.268 3.345,-24.55 5.009,-36.849 5.116,-0.927 10.227,-1.882 15.335,-2.863 -2.185,15.891 -4.379,31.753 -6.584,47.583 m -72.159,-5.228 c 0.605,-4.968 1.21,-9.942 1.814,-14.911 -5.104,0.597 -10.211,1.172 -15.32,1.723 -1.039,8.939 -2.081,17.875 -3.125,26.803 5.365,-3.163 10.75,-6.4 16.156,-9.72 -0.705,5.773 -1.411,11.544 -2.117,17.313 -5.362,3.186 -10.703,6.298 -16.023,9.338 -0.733,6.254 -1.469,12.504 -2.206,18.755 4.94,-0.111 9.88,-0.224 14.819,-0.343 0.457,-3.707 0.913,-7.414 1.369,-11.122 5.282,-3.103 10.584,-6.279 15.907,-9.537 -1.515,11.889 -3.034,23.765 -4.559,35.635 -14.657,0.024 -29.313,0.047 -43.97,0.066 3.362,-29.957 6.696,-59.962 10.003,-90.022 15.417,-1.811 30.81,-3.855 46.173,-6.141 -0.91,7.248 -1.822,14.493 -2.736,21.735 -5.415,3.565 -10.81,7.038 -16.185,10.428 m -60.319,17.127 c 0.849,-8.65 1.697,-17.303 2.542,-25.962 -5.121,0.426 -10.244,0.829 -15.369,1.211 -2.154,23.913 -4.321,47.804 -6.502,71.675 -4.9,0.005 -9.8,0.01 -14.7,0.014 2.326,-28.007 4.635,-56.038 6.925,-84.088 10.343,-0.811 20.678,-1.719 31.003,-2.733 0.005,-0.042 0.009,-0.082 0.012,-0.124 5.118,-0.503 10.233,-1.031 15.346,-1.584 -1.131,10.843 -2.265,21.682 -3.403,32.516 -5.307,3.089 -10.592,6.113 -15.854,9.075 m -58.805,2.579 c 0.536,-8.182 1.069,-16.365 1.603,-24.549 -5.133,0.26 -10.267,0.5 -15.402,0.719 -1.266,22.748 -2.538,45.487 -3.819,68.221 -4.9,0.002 -9.8,0.005 -14.7,0.008 1.242,-26.84 2.476,-53.687 3.7,-80.54 10.364,-0.422 20.723,-0.946 31.077,-1.567 0.003,-0.039 0.006,-0.078 0.008,-0.117 5.131,-0.309 10.261,-0.641 15.389,-0.998 -0.753,10.187 -1.509,20.372 -2.267,30.556 -5.221,2.802 -10.416,5.556 -15.589,8.267 m -74.251,15.245 c -0.086,5.483 -0.173,10.972 -0.259,16.457 4.946,-0.012 9.891,-0.03 14.838,-0.048 0.211,-7.973 0.422,-15.946 0.633,-23.918 -5.097,2.523 -10.167,5.024 -15.212,7.509 m -15.16,29.169 c 0.13,-26.436 0.261,-52.871 0.39,-79.306 5.186,-0.024 10.372,-0.07 15.558,-0.14 -0.185,11.879 -0.371,23.758 -0.557,35.637 5.096,-2.497 10.219,-5.019 15.368,-7.562 0.248,-9.454 0.497,-18.907 0.744,-28.361 5.139,-0.12 10.277,-0.261 15.415,-0.428 -0.976,26.719 -1.959,53.437 -2.948,80.15 -14.657,0.005 -29.314,0.011 -43.97,0.01 m -43.545,-43.962 c 4.993,-2.402 10.013,-4.806 15.06,-7.22 -0.079,-5.183 -0.159,-10.366 -0.239,-15.548 -5.14,-0.06 -10.28,-0.136 -15.42,-0.237 0.2,7.67 0.399,15.335 0.599,23.005 m 0.816,31.203 c 4.946,0.02 9.893,0.036 14.838,0.048 -0.123,-7.946 -0.246,-15.887 -0.368,-23.832 -4.994,2.426 -9.962,4.848 -14.903,7.272 0.144,5.502 0.288,11.008 0.433,16.512 m -17.298,-67.392 c 15.505,0.499 31.015,0.783 46.528,0.846 0.055,11.857 0.111,23.717 0.167,35.574 -2.343,1.127 -4.68,2.252 -7.012,3.376 2.354,1.143 4.702,2.285 7.044,3.421 0.059,12.312 0.117,24.624 0.176,36.934 -14.657,0 -29.313,-0.004 -43.97,-0.009 -0.985,-26.711 -1.963,-53.425 -2.933,-80.142 m -55.157,66.806 c 4.944,0.062 9.889,0.116 14.834,0.169 -1.508,-23.004 -3.008,-46.016 -4.499,-69.038 5.178,0.312 10.356,0.595 15.537,0.855 1.257,22.781 2.523,45.556 3.796,68.326 4.901,0.043 9.803,0.083 14.704,0.117 0.198,4.302 0.396,8.601 0.594,12.901 -14.656,-0.007 -29.313,-0.018 -43.969,-0.028 -0.333,-4.436 -0.665,-8.866 -0.997,-13.302 m -42.902,-0.628 c 4.942,0.085 9.885,0.165 14.829,0.242 -1.761,-19.357 -3.513,-38.731 -5.256,-58.115 -5.125,-0.382 -10.249,-0.785 -15.37,-1.21 1.922,19.711 3.854,39.406 5.797,59.083 m -22.636,-74.596 c 15.477,1.674 30.975,3.115 46.49,4.328 2.289,28.084 4.596,56.146 6.92,84.186 -14.7,-0.014 -29.4,-0.029 -44.101,-0.047 -3.128,-29.447 -6.231,-58.932 -9.309,-88.467 m -35.067,73.41 c 4.939,0.12 9.879,0.232 14.819,0.343 -2.45,-20.799 -4.887,-41.622 -7.31,-62.477 -5.109,-0.552 -10.216,-1.127 -15.32,-1.723 2.589,21.32 5.192,42.605 7.811,63.857 m -25.055,-81.124 c 15.409,2.294 30.848,4.344 46.31,6.157 3.305,30.054 6.637,60.055 9.996,90.007 -14.7,-0.019 -29.4,-0.041 -44.1,-0.067 -4.104,-31.949 -8.174,-63.98 -12.206,-96.097 m -45.019,95.989 c -4.983,-35.253 -9.918,-70.643 -14.804,-106.181 5.107,0.983 10.219,1.938 15.334,2.863 2.105,15.559 4.22,31.093 6.343,46.599 4.588,-2.64 9.199,-5.216 13.831,-7.729 0.828,6.191 1.658,12.378 2.488,18.561 -4.584,2.718 -9.145,5.5 -13.685,8.356 0.967,7.03 1.937,14.056 2.908,21.075 4.935,0.155 9.87,0.303 14.806,0.448 -0.576,-4.257 -1.151,-8.516 -1.726,-12.777 4.545,-2.86 9.112,-5.647 13.702,-8.374 1.629,12.429 3.263,24.843 4.903,37.245 -14.699,-0.026 -29.4,-0.054 -44.1,-0.086"
         style="fill:#ffffff;fill-opacity:1;fill-rule:nonzero;stroke:none;stroke-width:8.35111141"
         id="path320"
         inkscape:connector-curvature="0" /></g><g
       id="g322"
       transform="matrix(0.11974455,0,0,0.11974455,-19.717938,-28.677321)"
       style="stroke-width:8.35111141"><g
         id="g324"
         clip-path="url(#clipPath328)"
         style="stroke-width:8.35111141"><g
           id="g330"
           style="stroke-width:8.35111141"><g
             id="g332"
             style="stroke-width:8.35111141"><path
               d="m 303.587,452.355 c -1.061,-9.076 -2.129,-18.136 -3.186,-27.224 v 0 l -0.184,-1.587 -1.587,-0.171 c -5.104,-0.552 -10.204,-1.126 -15.304,-1.72 v 0 l -2.523,-0.296 0.307,2.523 c 1.091,8.991 2.196,17.951 3.294,26.929 v 0 c -3.678,-0.31 -7.36,-0.629 -11.048,-0.957 v 0 c -1.747,-13.768 -3.483,-27.502 -5.193,-41.117 v 0 c 13.915,2.047 28.084,3.925 42.184,5.593 v 0 c 1.418,12.895 2.853,25.867 4.293,38.848 v 0 c -3.683,-0.265 -7.367,-0.54 -11.053,-0.821"
               style="fill:url(#linearGradient340);stroke:none;stroke-width:8.35111141"
               id="path342"
               inkscape:connector-curvature="0" /></g></g></g></g><g
       id="g344"
       transform="matrix(0.11974455,0,0,0.11974455,-19.717938,-28.677321)"
       style="stroke-width:8.35111141"><g
         id="g346"
         clip-path="url(#clipPath350)"
         style="stroke-width:8.35111141"><g
           id="g352"
           style="stroke-width:8.35111141"><g
             id="g354"
             style="stroke-width:8.35111141"><path
               d="m 362.482,456.146 c -0.769,-8.507 -1.542,-17.005 -2.308,-25.516 v 0 l -0.152,-1.69 -1.691,-0.126 c -5.12,-0.382 -10.238,-0.785 -15.354,-1.21 v 0 l -2.389,-0.198 0.233,2.386 c 0.823,8.431 1.653,16.845 2.48,25.268 v 0 c -3.702,-0.223 -7.402,-0.453 -11.1,-0.691 v 0 c -1.343,-12.775 -2.673,-25.477 -3.983,-38.031 v 0 c 14.023,1.493 28.262,2.815 42.39,3.935 v 0 c 0.991,12.154 1.997,24.287 2.995,36.431 v 0 c -3.713,-0.179 -7.42,-0.364 -11.121,-0.558"
               style="fill:url(#linearGradient362);stroke:none;stroke-width:8.35111141"
               id="path364"
               inkscape:connector-curvature="0" /></g></g></g></g><g
       id="g366"
       transform="matrix(0.11974455,0,0,0.11974455,-19.717938,-28.677321)"
       style="stroke-width:8.35111141"><g
         id="g368"
         clip-path="url(#clipPath372)"
         style="stroke-width:8.35111141"><g
           id="g374"
           style="stroke-width:8.35111141"><g
             id="g376"
             style="stroke-width:8.35111141"><path
               d="m 406.302,458.073 c -0.771,-11.834 -1.547,-23.664 -2.314,-35.501 v 0 c 3.736,0.218 7.589,0.429 11.496,0.63 v 0 c 0.649,11.753 1.306,23.5 1.959,35.25 v 0 c -3.723,-0.12 -7.437,-0.246 -11.141,-0.379"
               style="fill:url(#linearGradient384);stroke:none;stroke-width:8.35111141"
               id="path386"
               inkscape:connector-curvature="0" /></g></g></g></g><g
       id="g388"
       transform="matrix(0.11974455,0,0,0.11974455,-19.717938,-28.677321)"
       style="stroke-width:8.35111141"><g
         id="g390"
         clip-path="url(#clipPath394)"
         style="stroke-width:8.35111141"><g
           id="g396"
           style="stroke-width:8.35111141"><g
             id="g398"
             style="stroke-width:8.35111141"><path
               d="m 465.836,459.622 c 4.394,-2.112 8.801,-4.224 13.238,-6.346 v 0 l 1.155,-0.553 -0.289,-18.776 -1.945,-0.023 c -5.137,-0.06 -10.27,-0.136 -15.405,-0.237 v 0 l -2.093,-0.039 0.674,25.899 c -3.735,-0.067 -7.45,-0.143 -11.156,-0.223 v 0 c -0.424,-11.585 -0.85,-23.168 -1.271,-34.754 v 0 c 14.163,0.437 28.427,0.695 42.461,0.77 v 0 l 0.153,32.329 -4.661,2.244 c -7.018,-0.076 -13.959,-0.176 -20.861,-0.291"
               style="fill:url(#linearGradient406);stroke:none;stroke-width:8.35111141"
               id="path408"
               inkscape:connector-curvature="0" /></g></g></g></g><g
       id="g410"
       transform="matrix(0.11974455,0,0,0.11974455,-19.717938,-28.677321)"
       style="stroke-width:8.35111141"><g
         id="g412"
         clip-path="url(#clipPath416)"
         style="stroke-width:8.35111141"><g
           id="g418"
           style="stroke-width:8.35111141"><g
             id="g420"
             style="stroke-width:8.35111141"><path
               d="m 712.266,446.294 -0.592,4.847 c -2.881,0.239 -5.758,0.467 -8.634,0.694 v 0 c 3.112,-1.849 6.203,-3.702 9.226,-5.541"
               style="fill:url(#linearGradient428);stroke:none;stroke-width:8.35111141"
               id="path430"
               inkscape:connector-curvature="0" /></g></g></g></g><g
       id="g432"
       transform="matrix(0.11974455,0,0,0.11974455,-19.717938,-28.677321)"
       style="stroke-width:8.35111141"><g
         id="g434"
         clip-path="url(#clipPath438)"
         style="stroke-width:8.35111141"><g
           id="g440"
           style="stroke-width:8.35111141"><g
             id="g442"
             style="stroke-width:8.35111141"><path
               d="m 231.514,445.776 c 2.795,-1.589 5.607,-3.169 8.425,-4.716 v 0 c 0.254,1.894 0.509,3.785 0.762,5.677 v 0 c -3.053,-0.312 -6.12,-0.636 -9.187,-0.961"
               style="fill:url(#linearGradient450);stroke:none;stroke-width:8.35111141"
               id="path452"
               inkscape:connector-curvature="0" /></g></g></g></g><g
       id="g454"
       transform="matrix(0.11974455,0,0,0.11974455,-19.717938,-28.677321)"
       style="stroke-width:8.35111141"><g
         id="g456"
         clip-path="url(#clipPath460)"
         style="stroke-width:8.35111141"><g
           id="g462"
           style="stroke-width:8.35111141"><g
             id="g464"
             style="stroke-width:8.35111141"><path
               d="m 214.658,443.939 c -2.107,-15.133 -4.202,-30.252 -6.268,-45.272 v 0 c 3.749,0.715 7.496,1.412 11.185,2.084 v 0 c 2.006,14.82 4.021,29.62 6.044,44.394 v 0 c -3.643,-0.394 -7.294,-0.794 -10.961,-1.206"
               style="fill:url(#linearGradient472);stroke:none;stroke-width:8.35111141"
               id="path474"
               inkscape:connector-curvature="0" /></g></g></g></g><g
       id="g476"
       transform="matrix(0.11974455,0,0,0.11974455,-19.717938,-28.677321)"
       style="stroke-width:8.35111141"><g
         id="g478"
         clip-path="url(#clipPath482)"
         style="stroke-width:8.35111141"><g
           id="g484"
           style="stroke-width:8.35111141"><g
             id="g486"
             style="stroke-width:8.35111141"><path
               d="m 749.691,405.998 c 3.82,-0.61 7.59,-1.227 11.249,-1.842 v 0 c -1.876,14.159 -3.761,28.296 -5.654,42.414 v 0 l -0.077,0.576 c -3.676,0.37 -7.345,0.732 -11.003,1.084 v 0 c 1.84,-14.102 3.673,-28.205 5.485,-42.232"
               style="fill:url(#linearGradient494);stroke:none;stroke-width:8.35111141"
               id="path496"
               inkscape:connector-curvature="0" /></g></g></g></g><g
       id="g498"
       transform="matrix(0.11974455,0,0,0.11974455,-19.717938,-28.677321)"
       style="stroke-width:8.35111141"><g
         id="g500"
         clip-path="url(#clipPath504)"
         style="stroke-width:8.35111141"><g
           id="g506"
           style="stroke-width:8.35111141"><g
             id="g508"
             style="stroke-width:8.35111141"><path
               d="m 689.792,414.311 c 14.061,-1.665 28.186,-3.539 42.046,-5.577 v 0 c -0.762,6.071 -1.528,12.141 -2.292,18.207 v 0 c -3.887,2.554 -7.847,5.115 -11.821,7.645 v 0 l 1.611,-13.246 -2.525,0.297 c -5.044,0.591 -10.193,1.169 -15.302,1.721 v 0 l -1.587,0.171 -0.185,1.587 c -0.778,6.698 -2.407,20.652 -3.175,27.228 v 0 c -3.691,0.282 -7.379,0.558 -11.065,0.822 v 0 c 1.439,-12.965 2.873,-25.939 4.295,-38.855"
               style="fill:url(#linearGradient516);stroke:none;stroke-width:8.35111141"
               id="path518"
               inkscape:connector-curvature="0" /></g></g></g></g><g
       id="g520"
       transform="matrix(0.11974455,0,0,0.11974455,-19.717938,-28.677321)"
       style="stroke-width:8.35111141"><g
         id="g522"
         clip-path="url(#clipPath526)"
         style="stroke-width:8.35111141"><g
           id="g528"
           style="stroke-width:8.35111141"><g
             id="g530"
             style="stroke-width:8.35111141"><path
               d="m 629.661,420.371 c 9.934,-0.789 19.796,-1.664 29.344,-2.603 v 0 l 1.61,-0.158 0.015,-0.125 c 3.792,-0.377 7.575,-0.766 11.291,-1.163 v 0 c -1.01,9.686 -2.024,19.367 -3.039,29.045 v 0 c -3.831,2.225 -7.718,4.457 -11.606,6.661 v 0 c 0.724,-7.376 2.401,-24.52 2.401,-24.52 v 0 l -2.39,0.198 c -5.116,0.426 -10.233,0.827 -15.353,1.21 v 0 l -1.691,0.126 -0.152,1.688 c -0.763,8.475 -1.537,16.933 -2.303,25.403 v 0 c -3.7,0.194 -7.406,0.379 -11.118,0.558 v 0 c 0.996,-12.108 2.002,-24.205 2.991,-36.32"
               style="fill:url(#linearGradient538);stroke:none;stroke-width:8.35111141"
               id="path540"
               inkscape:connector-curvature="0" /></g></g></g></g><g
       id="g542"
       transform="matrix(0.11974455,0,0,0.11974455,-19.717938,-28.677321)"
       style="stroke-width:8.35111141"><g
         id="g544"
         clip-path="url(#clipPath548)"
         style="stroke-width:8.35111141"><g
           id="g550"
           style="stroke-width:8.35111141"><g
             id="g552"
             style="stroke-width:8.35111141"><path
               d="m 774.759,437.54 0.731,-0.501 0.119,-0.878 c 1.61,-11.79 3.216,-23.592 4.816,-35.411 v 0 c 3.732,-0.679 7.479,-1.378 11.186,-2.083 v 0 c -2.019,14.679 -4.046,29.332 -6.084,43.96 v 0 c -0.74,0.52 -1.478,1.025 -2.217,1.541 v 0 c -7.353,0.821 -14.652,1.601 -21.917,2.35 v 0 c 4.553,-3.001 9.039,-6.012 13.366,-8.978"
               style="fill:url(#linearGradient560);stroke:none;stroke-width:8.35111141"
               id="path562"
               inkscape:connector-curvature="0" /></g></g></g></g><g
       id="g564"
       transform="matrix(0.11974455,0,0,0.11974455,-19.717938,-28.677321)"
       style="stroke-width:8.35111141"><g
         id="g566"
         clip-path="url(#clipPath570)"
         style="stroke-width:8.35111141"><g
           id="g572"
           style="stroke-width:8.35111141"><g
             id="g574"
             style="stroke-width:8.35111141"><path
               d="m 509.075,425.338 c 3.875,-0.022 7.739,-0.057 11.535,-0.103 v 0 l -0.541,34.593 c -3.704,0.048 -7.425,0.089 -11.164,0.126 v 0 z"
               style="fill:url(#linearGradient582);stroke:none;stroke-width:8.35111141"
               id="path584"
               inkscape:connector-curvature="0" /></g></g></g></g><g
       id="g586"
       transform="matrix(0.11974455,0,0,0.11974455,-19.717938,-28.677321)"
       style="stroke-width:8.35111141"><g
         id="g588"
         clip-path="url(#clipPath592)"
         style="stroke-width:8.35111141"><g
           id="g594"
           style="stroke-width:8.35111141"><g
             id="g596"
             style="stroke-width:8.35111141"><path
               d="m 538.339,453.076 1.082,-0.534 0.727,-27.666 c 3.902,-0.096 7.716,-0.201 11.387,-0.315 v 0 c -0.422,11.587 -0.852,23.172 -1.279,34.758 v 0 c -8.428,0.181 -16.93,0.331 -25.521,0.451 v 0 c 4.517,-2.215 9.047,-4.443 13.604,-6.694"
               style="fill:url(#linearGradient604);stroke:none;stroke-width:8.35111141"
               id="path606"
               inkscape:connector-curvature="0" /></g></g></g></g><g
       id="g608"
       transform="matrix(0.11974455,0,0,0.11974455,-19.717938,-28.677321)"
       style="stroke-width:8.35111141"><g
         id="g610"
         clip-path="url(#clipPath614)"
         style="stroke-width:8.35111141"><g
           id="g616"
           style="stroke-width:8.35111141"><g
             id="g618"
             style="stroke-width:8.35111141"><path
               d="m 569.402,424.022 c 9.688,-0.406 19.529,-0.909 29.283,-1.494 v 0 l 1.744,-0.104 0.009,-0.118 c 3.869,-0.238 7.674,-0.484 11.359,-0.734 v 0 c -0.67,9.054 -1.341,18.106 -2.015,27.157 v 0 c -3.802,2.038 -7.638,4.074 -11.448,6.081 v 0 l 1.517,-23.231 -2.244,0.114 c -5.126,0.26 -10.256,0.5 -15.386,0.72 v 0 l -1.811,0.078 -0.101,1.808 c -0.45,8.093 -0.906,16.179 -1.358,24.269 v 0 c -3.703,0.114 -7.422,0.22 -11.15,0.321 v 0 c 0.534,-11.622 1.071,-23.241 1.601,-34.867"
               style="fill:url(#linearGradient626);stroke:none;stroke-width:8.35111141"
               id="path628"
               inkscape:connector-curvature="0" /></g></g></g></g></g></svg>